HIERARCHY
ROOT Hips
{
  OFFSET 0 0 0
  CHANNELS 6 Xposition Yposition Zposition Zrotation Yrotation Xrotation
  JOINT LeftThigh
  {
    OFFSET 8.409438 0 -5.917753
    CHANNELS 3 Zrotation Yrotation Xrotation
    JOINT LeftLeg
    {
      OFFSET 0 0 -42.358652
      CHANNELS 3 Zrotation Yrotation Xrotation
      JOINT LeftFoot
      {
        OFFSET 0 0 -39.357303
        CHANNELS 3 Zrotation Yrotation Xrotation
      }
    }
  }
  JOINT RightThigh
  {
    OFFSET -8.409438 0 -5.917753
    CHANNELS 3 Zrotation Yrotation Xrotation
    JOINT RightLeg
    {
      OFFSET 0 0 -42.358652
      CHANNELS 3 Zrotation Yrotation Xrotation
      JOINT RightFoot
      {
        OFFSET 0 0 -39.357303
        CHANNELS 3 Zrotation Yrotation Xrotation
      }
    }
  }
  JOINT SpineLow
  {
    OFFSET 0 0 4.719101
    CHANNELS 3 Zrotation Yrotation Xrotation
    JOINT SpineMid
    {
      OFFSET 0 0 12.899191
      CHANNELS 3 Zrotation Yrotation Xrotation
      JOINT Chest
      {
        OFFSET 0 0 12.899191
        CHANNELS 3 Zrotation Yrotation Xrotation
        JOINT LeftShoulder
        {
          OFFSET 7.550562 1.41573 9.438202
          CHANNELS 3 Zrotation Yrotation Xrotation
          JOINT LeftArm
          {
            OFFSET 9.155056 0 4.247191
            CHANNELS 3 Zrotation Yrotation Xrotation
            JOINT LeftForearm
            {
              OFFSET 0 0 25.771955
              CHANNELS 3 Zrotation Yrotation Xrotation
              JOINT LeftHand
              {
                OFFSET 0 0 25.197169
                CHANNELS 3 Zrotation Yrotation Xrotation
              }
            }
          }
        }
        JOINT RightShoulder
        {
          OFFSET -7.550562 1.41573 9.438202
          CHANNELS 3 Zrotation Yrotation Xrotation
          JOINT RightArm
          {
            OFFSET -9.155056 0 4.247191
            CHANNELS 3 Zrotation Yrotation Xrotation
            JOINT RightForearm
            {
              OFFSET 0 0 -25.771955
              CHANNELS 3 Zrotation Yrotation Xrotation
              JOINT RightHand
              {
                OFFSET 0 0 -25.197169
                CHANNELS 3 Zrotation Yrotation Xrotation
              }
            }
          }
        }
        JOINT Neck
        {
          OFFSET 0 0 15.101124
          CHANNELS 3 Zrotation Yrotation Xrotation
          JOINT Head
          {
            OFFSET 0 0 11.325843
            CHANNELS 3 Zrotation Yrotation Xrotation
            End Site
            {
              OFFSET 0 0 14.157303
            }
          }
        }
      }
    }
  }
}
MOTION
Frames: 11
Frame Time: 0.0
0.0  93.25843  0.0  -6.457081  -57.954067  -87.691586  19.013052  -12.803447  7.13088  12.099413  -0.445474  16.653485  18.205183  2.56251  5.435643  16.585537  -5.401603  -15.624096  6.687947  11.155108  13.597339  5.846966  2.317727  -0.439296  4.42849  -0.828104  -0.085538  12.112033  -2.239185  -0.38437  12.112032  -2.239185  -0.38437  -16.883599  3.58784  4.859841  -106.699949  43.35821  -69.742998  -15.240764  -8.839677  123.475624  97.907399  19.637769  22.647587  -8.549609  -9.153442  29.372879  108.205763  38.338767  58.727912  -22.179348  -10.034281  -113.4401  63.31816  -12.129634  -9.376543  10.88562  -1.008294  5.558705  8.173976  -0.657503  4.188459  
0.0  93.25843  0.0  -6.722389  -58.141678  -87.398983  19.75028  -13.235904  6.97637  11.61142  -0.262457  16.255027  18.602313  3.076928  5.587397  17.81339  -5.353048  -14.923517  6.16287  11.07252  12.402651  5.497902  2.296559  -0.494903  4.11797  -0.873154  -0.08246  11.263466  -2.364705  -0.373214  11.263466  -2.364705  -0.373214  -16.971731  2.655023  4.972305  -100.238312  44.436092  -62.957877  -16.635963  -12.226296  124.157017  101.222588  22.511108  20.5453  -9.562695  -8.69122  29.343917  105.71172  36.505408  59.011966  -22.398795  -8.39386  -112.394001  64.381692  -11.98958  -9.562972  11.776948  -0.934844  5.557672  8.841882  -0.59433  4.188024  
0.0  93.25843  0.0  -6.813451  -57.248127  -87.167839  20.928157  -13.754615  6.532157  11.188037  -0.251415  15.822602  18.445956  3.092831  5.665343  18.354262  -5.15421  -14.20216  5.314839  11.045889  11.207988  5.226618  2.244859  -0.424041  3.668588  -0.922194  -0.104042  10.036082  -2.498288  -0.423539  10.036082  -2.498288  -0.423539  -16.859648  1.946466  5.487166  -93.854443  45.493788  -55.907606  -17.836529  -15.627573  124.099809  105.280313  25.336061  17.780973  -10.431603  -8.309213  29.03331  102.814483  34.447446  59.389112  -22.457691  -6.703812  -111.598123  65.360063  -11.913048  -9.855291  12.611055  -0.743473  5.611569  9.465931  -0.442045  4.226098  
0.0  93.25843  0.0  -6.748267  -55.153241  -87.197166  21.97454  -14.371616  5.916981  10.697254  -0.354865  15.492734  17.826547  3.108735  5.645781  18.076775  -4.807437  -13.585669  2.595464  11.083695  9.637728  5.475329  2.190388  -0.157802  3.074218  -0.980176  -0.104182  8.411469  -2.660992  -0.408952  8.411469  -2.660992  -0.408952  -16.781068  1.378215  6.102999  -87.462072  46.749063  -48.732394  -18.819736  -19.711372  123.182448  109.150585  27.830765  14.479308  -11.223985  -7.95229  28.207683  99.633334  32.030899  59.843193  -22.359458  -5.006872  -111.058861  66.241717  -11.824921  -10.118702  13.270007  -0.553574  5.626974  9.958527  -0.293156  4.234589  
0.0  93.25843  0.0  -6.671395  -52.034549  -87.260926  22.610441  -15.064874  5.040954  10.012197  -0.425004  15.205125  17.122834  3.110495  5.593456  16.840653  -4.368174  -12.95205  1.633579  10.652404  8.865525  5.255605  2.138236  -0.037788  2.376799  -1.019764  -0.091994  6.504139  -2.775282  -0.351569  6.504139  -2.775282  -0.351569  -16.884324  0.541529  6.816288  -81.128  47.91318  -41.656181  -19.314278  -24.422762  121.416841  112.349638  30.176718  10.93324  -11.62661  -7.993842  27.133078  95.939108  29.555148  60.414363  -22.413413  -3.533821  -110.563438  67.113706  -11.711472  -10.365373  13.737186  -0.393207  5.527438  10.307408  -0.170739  4.156895  
0.0  93.25843  0.0  -6.773038  -48.219916  -87.123213  23.014896  -15.788645  3.896641  9.008864  -0.401864  14.804447  16.685124  3.023459  5.641096  14.617841  -3.986106  -12.200671  0.923665  10.05489  7.956232  5.1211  2.103722  0.069416  1.254049  -1.148036  -0.161836  3.437855  -3.128657  -0.502126  3.437855  -3.128657  -0.502126  -14.585129  -0.18703  8.054408  -75.004209  49.145908  -34.914111  -19.039339  -29.406761  118.757512  114.611703  32.313394  7.690106  -9.371497  -7.664863  26.478539  91.787695  26.977035  60.955427  -22.913986  -2.184081  -109.98781  67.937236  -11.455804  -10.42545  15.351661  -0.106499  5.823648  11.516005  0.06653  4.373688  
0.0  93.25843  0.0  -7.09355  -43.838385  -86.798333  23.232199  -16.56148  2.562987  7.666164  -0.339639  14.237859  16.317972  2.801473  5.658352  11.955123  -3.746987  -11.410444  0.177609  9.428572  6.959723  4.854385  2.091125  0.175176  0.443475  -1.251676  -0.166436  1.221813  -3.418124  -0.478279  1.221813  -3.418124  -0.478279  -14.633943  -1.67006  8.578169  -67.543571  50.799077  -27.054765  -18.093185  -34.422179  114.437551  115.57284  33.934125  5.514705  -9.581518  -7.130229  25.45429  87.923421  24.56195  60.96976  -24.130627  -1.179543  -109.381352  69.301004  -11.256338  -10.527186  15.508089  0.104619  5.684514  11.631292  0.222964  4.26399  
0.0  93.25843  0.0  -7.548287  -39.337683  -86.28876  23.518581  -17.316251  1.045374  7.216135  -0.318713  14.316705  14.883989  2.529826  4.919892  9.58705  -3.609266  -10.76946  -1.773208  8.89053  5.716795  5.18132  2.083282  0.417626  -0.448041  -1.144463  -0.118892  -1.219884  -3.130347  -0.303963  -1.219884  -3.130346  -0.303963  -13.727053  -5.395041  9.088693  -59.677824  52.265217  -18.771628  -16.035126  -38.631312  108.38241  115.375653  34.49729  5.503146  -10.653087  -7.854623  23.781122  85.538373  21.441061  61.23485  -24.345108  -0.419368  -109.345441  70.4365  -10.730736  -8.599711  15.968972  -0.439384  5.041341  11.981264  -0.19793  3.795549  
0.0  93.25843  0.0  -7.986542  -34.918159  -85.173598  24.015264  -17.747534  -1.122028  5.804664  -0.373475  13.723942  14.103468  2.380293  4.830085  7.651384  -3.373736  -10.849663  -3.323249  8.271086  4.892126  4.934011  2.113849  0.50283  -1.144617  -1.312972  -0.235919  -3.118683  -3.59909  -0.583042  -3.118683  -3.59909  -0.583042  -13.303941  -8.319745  9.545666  -52.808893  53.314428  -11.416386  -12.361016  -41.594763  100.812378  114.299294  34.525484  7.06919  -11.696167  -6.823615  22.743341  81.601357  19.441694  60.717052  -24.373937  0.106234  -109.684686  70.171071  -10.415938  -7.05727  15.78966  -0.226064  4.958964  11.844993  -0.04141  3.728016  
0.0  93.25843  0.0  -8.354225  -30.502103  -84.45928  23.253028  -17.746457  -3.160059  4.521377  -1.205257  13.1718  13.736294  2.522678  5.203893  5.782539  -3.239055  -10.777661  -5.256581  7.727253  4.267837  4.7654  2.165661  0.577789  -1.764396  -1.740929  -0.530359  -4.792043  -4.794231  -1.323781  -4.792043  -4.794232  -1.323781  -13.09711  -9.115934  10.658127  -45.772362  53.875374  -3.646332  -6.843871  -43.267311  91.5266  112.729622  34.565063  8.608721  -12.31983  -4.197578  22.410818  76.33656  17.945943  60.178902  -23.306029  -0.294492  -110.082263  69.29442  -9.829213  -8.271944  15.406595  0.617481  5.944749  11.550138  0.613565  4.446305  
0.0  93.25843  0.0  -8.833119  -26.331625  -83.793432  23.271546  -18.111496  -4.689762  2.854595  -1.430418  12.461617  12.773293  2.490485  4.977805  4.138982  -3.281627  -11.01277  -6.996402  7.30071  4.190381  4.539792  2.237199  0.627013  -2.307668  -2.002879  -0.92127  -6.243833  -5.556094  -2.329239  -6.243833  -5.556094  -2.329239  -13.213609  -10.671482  12.817118  -38.768344  54.104697  4.131386  0.525224  -43.25323  80.333279  111.317788  34.35746  9.339537  -12.880651  -2.52158  23.51477  70.683328  17.219817  59.563071  -20.877356  -1.275552  -111.325552  67.474091  -8.892717  -8.901802  14.928712  0.718496  7.02468  11.189901  0.711147  5.254612  
